<svg xmlns="http://www.w3.org/2000/svg" viewBox="0 0 192 192" fill="none">
  <defs>
    <linearGradient id="shieldGrad" x1="0%" y1="0%" x2="100%" y2="100%">
      <stop offset="0%" stop-color="#818CF8"/>
      <stop offset="100%" stop-color="#A78BFA"/>
    </linearGradient>
  </defs>
  
  <!-- Background -->
  <rect width="192" height="192" rx="38" fill="#0A0A0F"/>
  
  <!-- Outer ring -->
  <circle cx="96" cy="96" r="80" stroke="#22D3EE" stroke-width="1" opacity="0.2"/>
  
  <!-- Shield -->
  <path 
    d="M96 28L40 52V96C40 132 64 160 96 172C128 160 152 132 152 96V52L96 28Z" 
    fill="url(#shieldGrad)"
  />
  
  <!-- Shield inner -->
  <path 
    d="M96 40L52 60V96C52 124 72 148 96 160C120 148 140 124 140 96V60L96 40Z" 
    fill="#0A0A0F" 
    opacity="0.75"
  />
  
  <!-- Lock body -->
  <rect x="70" y="82" width="52" height="44" rx="6" fill="#22D3EE"/>
  
  <!-- Lock shackle -->
  <path 
    d="M78 82V70C78 60.0589 86.0589 52 96 52C105.941 52 114 60.0589 114 70V82" 
    stroke="#22D3EE" 
    stroke-width="8" 
    stroke-linecap="round"
  />
  
  <!-- Keyhole -->
  <circle cx="96" cy="98" r="8" fill="#0A0A0F"/>
  <rect x="92" y="98" width="8" height="16" rx="3" fill="#0A0A0F"/>
</svg>
